# xmcd
#
# Track frame offsets: 
#        150
#        19859
#        38224
#        56667
#
# Disc length: 987 seconds
#
# Revision: 0
# Processed by: cddbd v1.5.1PL2 Copyright (c) Steve Scherf et al.
# Submitted via: ExactAudioCopy v0.95b3
#
DISCID=2d03d904
DTITLE=Erik Bakk - Intro
DYEAR=2003
DGENRE=Pop
TTITLE0=Let it last
TTITLE1=Was it only a game
TTITLE2=Sleep tonight
TTITLE3=Getting there
EXTD=
EXTT0=
EXTT1=
EXTT2=
EXTT3=
PLAYORDER=
